<?xml version="1.0" encoding="UTF-8"?>
<svg version="1.1" xmlns="http://www.w3.org/2000/svg" width="512" height="512">
<path d="M0 0 C0.90045044 -0.00705963 1.80090088 -0.01411926 2.7286377 -0.02139282 C40.51335421 -0.25041822 40.51335421 -0.25041822 57.20703125 3.203125 C58.18478516 3.40180176 59.16253906 3.60047852 60.16992188 3.80517578 C98.9388454 11.91748188 135.09750707 27.46924459 166.20703125 52.203125 C167.11453125 52.91855469 168.02203125 53.63398437 168.95703125 54.37109375 C183.03018336 65.66559793 196.02845665 78.01711663 207.20703125 92.203125 C208.39619141 93.68425781 208.39619141 93.68425781 209.609375 95.1953125 C234.18599807 126.33346685 250.53183098 162.71610882 258.45703125 201.515625 C258.60817383 202.25433838 258.75931641 202.99305176 258.91503906 203.75415039 C259.39142928 206.23154082 259.80955911 208.71178722 260.20703125 211.203125 C260.47410889 212.87677124 260.47410889 212.87677124 260.74658203 214.58422852 C262.40701613 226.22284768 262.60577495 237.77208753 262.58203125 249.515625 C262.58121552 251.03606415 262.58121552 251.03606415 262.5803833 252.58721924 C262.54050542 268.78433721 261.67450926 284.32820865 258.20703125 300.203125 C257.98740723 301.22937988 257.7677832 302.25563477 257.54150391 303.31298828 C250.5748437 335.05985667 238.28204748 365.72741942 219.20703125 392.203125 C218.77310059 392.80543945 218.33916992 393.40775391 217.89208984 394.02832031 C204.10078469 413.05700963 188.8530247 430.76239816 170.20703125 445.203125 C169.22605469 445.98945313 168.24507813 446.77578125 167.234375 447.5859375 C138.14670201 470.72821799 104.50081329 486.36526203 68.39453125 494.890625 C67.60288574 495.08116455 66.81124023 495.2717041 65.99560547 495.46801758 C48.31515559 499.43063846 30.59402126 500.75848646 12.51953125 500.640625 C11.5208905 500.63758362 10.52224976 500.63454224 9.49334717 500.63140869 C-6.57638792 500.55934135 -22.04510061 499.64285251 -37.79296875 496.203125 C-38.81922363 495.98350098 -39.84547852 495.76387695 -40.90283203 495.53759766 C-72.64970042 488.57093745 -103.31726317 476.27814123 -129.79296875 457.203125 C-130.3952832 456.76919434 -130.99759766 456.33526367 -131.61816406 455.88818359 C-150.64685338 442.09687844 -168.35224191 426.84911845 -182.79296875 408.203125 C-183.57929688 407.22214844 -184.365625 406.24117188 -185.17578125 405.23046875 C-208.31806174 376.14279576 -223.95510578 342.49690704 -232.48046875 306.390625 C-232.6710083 305.59897949 -232.86154785 304.80733398 -233.05786133 303.99169922 C-237.02048221 286.31124934 -238.34833021 268.59011501 -238.23046875 250.515625 C-238.22742737 249.51698425 -238.22438599 248.51834351 -238.22125244 247.48944092 C-238.1491851 231.41970583 -237.23269626 215.95099314 -233.79296875 200.203125 C-233.57334473 199.17687012 -233.3537207 198.15061523 -233.12744141 197.09326172 C-231.58399571 190.05982446 -229.79789605 183.11870704 -227.79296875 176.203125 C-227.55271973 175.37361328 -227.3124707 174.54410156 -227.06494141 173.68945312 C-213.40930507 128.09053749 -183.34488897 84.39264282 -145.79296875 55.203125 C-144.31957031 54.02169922 -144.31957031 54.02169922 -142.81640625 52.81640625 C-103.09056081 21.19953493 -51.16344488 0.268744 0 0 Z " fill="#10B2EC" transform="translate(243.79296875,11.796875)"/>
<path d="M0 0 C4.0638239 2.03191195 6.68616346 4.40881145 9.82478333 7.57754517 C10.69229809 8.4414383 10.69229809 8.4414383 11.5773384 9.32278383 C13.51573774 11.25554373 15.44690102 13.19537486 17.37817383 15.13525391 C18.7659811 16.52198831 20.15422121 17.90828966 21.54286194 19.29418945 C25.31616613 23.06264099 29.08318097 26.83732282 32.84898591 30.61326647 C36.792905 34.56596753 40.74209365 38.51339718 44.69059753 42.46151733 C51.32587364 49.09773056 57.95726318 55.73780752 64.58618164 62.38037109 C72.23993569 70.04982201 79.89887452 77.71406307 87.56084806 85.37530196 C95.72473246 93.53850938 103.88479697 101.7055271 112.04375625 109.87365675 C114.39009068 112.2221179 116.73713076 114.56987184 119.08432961 116.91746902 C122.78271919 120.6168675 126.47853227 124.31882167 130.17241478 128.02272034 C131.52477983 129.37799241 132.87797608 130.73243568 134.23208618 132.0859642 C146.68287918 144.53343477 146.68287918 144.53343477 151.64754772 150.46899986 C153.04501428 152.05095697 154.51834659 153.39856265 156.125 154.765625 C157.07375 155.58546875 158.0225 156.4053125 159 157.25 C159.969375 158.05953125 160.93875 158.8690625 161.9375 159.703125 C166.34948122 166.75561012 162.90153398 176.41875602 161.18579102 184.13134766 C160.93885498 185.18112793 160.69191895 186.2309082 160.4375 187.3125 C160.17573975 188.43188965 159.91397949 189.5512793 159.64428711 190.70458984 C152.62529044 219.65820622 140.45310432 247.77547269 123 272 C122.56606934 272.60231445 122.13213867 273.20462891 121.68505859 273.82519531 C107.89375344 292.85388463 92.64599345 310.55927316 74 325 C73.01902344 325.78632813 72.03804687 326.57265625 71.02734375 327.3828125 C41.74728855 350.67815312 7.91211174 366.29219057 -28.4375 374.8125 C-29.31293457 375.01979736 -30.18836914 375.22709473 -31.09033203 375.44067383 C-32.77159246 375.815958 -34.45997618 376.16110502 -36.1546669 376.47013283 C-38.02274816 376.81801299 -39.88166019 377.22034809 -41.72515488 377.68108177 C-46.4943007 378.56736597 -49.67059518 378.79398224 -53.92336273 376.25403214 C-57.1057661 373.50466729 -60.01405441 370.60812083 -62.91894531 367.57275391 C-64.05092073 366.43874643 -65.18576375 365.30759532 -66.32322693 364.17909241 C-69.39154307 361.11875349 -72.4181612 358.02001096 -75.43857288 354.91247988 C-78.60647881 351.66684083 -81.81101425 348.45777665 -85.01165771 345.24447632 C-90.37540159 339.84952829 -95.71528923 334.43193294 -101.03857422 328.99707031 C-108.55658697 321.32148287 -116.11400616 313.68567808 -123.68100977 306.05842328 C-133.80474015 295.85086171 -143.91524284 285.63001629 -153.98335457 275.36756706 C-155.07583868 274.25449841 -156.16915126 273.14224224 -157.26332664 272.03083611 C-158.74964963 270.52055928 -160.23275791 269.00720213 -161.71490479 267.49282837 C-162.96360037 266.22018851 -162.96360037 266.22018851 -164.23752213 264.92183876 C-166 263 -166 263 -166 262 C-142.57 262 -119.14 262 -95 262 C-95 231.31 -95 200.62 -95 169 C-66.95 169 -38.9 169 -10 169 C-10 148.21 -10 127.42 -10 106 C-37.72 106 -65.44 106 -94 106 C-94 92.47 -94 78.94 -94 65 C-62.98 65 -31.96 65 0 65 C0 43.55 0 22.1 0 0 Z " fill="#008BC3" transform="translate(340,132)"/>
<path d="M0 0 C54.78 0 109.56 0 166 0 C166 21.45 166 42.9 166 65 C134.98 65 103.96 65 72 65 C72 78.86 72 92.72 72 107 C100.05 107 128.1 107 157 107 C157 127.79 157 148.58 157 170 C128.95 170 100.9 170 72 170 C72 200.36 72 230.72 72 262 C48.24 262 24.48 262 0 262 C0 175.54 0 89.08 0 0 Z " fill="#FEFEFE" transform="translate(173,131)"/>
</svg>
