<?xml version="1.0" encoding="UTF-8"?>
<svg version="1.1" xmlns="http://www.w3.org/2000/svg" width="512" height="512">
<path d="M0 0 C0.99868909 -0.00297112 1.99737819 -0.00594224 3.02633059 -0.0090034 C6.35908455 -0.01764635 9.69180239 -0.01919493 13.02456665 -0.02069092 C15.42015662 -0.02532233 17.81574585 -0.03034742 20.21133423 -0.03573608 C26.71186048 -0.04883371 33.21237985 -0.05533771 39.71291685 -0.05974674 C43.78023756 -0.06251761 47.84755591 -0.06675656 51.91487503 -0.07125092 C63.19913521 -0.08343966 74.48339352 -0.09373856 85.76766014 -0.09712601 C86.48888342 -0.09734557 87.2101067 -0.09756514 87.95318524 -0.09779136 C88.67603937 -0.09800964 89.39889351 -0.09822791 90.14365232 -0.09845281 C91.60818887 -0.09889626 93.07272542 -0.09934282 94.53726196 -0.09979248 C95.2637076 -0.10001391 95.99015323 -0.10023534 96.73861237 -0.10046348 C108.48858398 -0.10440477 120.23849332 -0.12184006 131.98844092 -0.145152 C144.08217627 -0.16895013 156.17588049 -0.18133175 168.26963961 -0.18249393 C175.04751456 -0.18340615 181.82530843 -0.18904286 188.60316086 -0.20731354 C194.98736375 -0.22388814 201.37141365 -0.2259044 207.75563049 -0.21717453 C210.08628883 -0.21640908 212.41695571 -0.22068117 214.74759293 -0.23063278 C258.07962913 -0.40465983 296.27158717 14.14096113 327.37026978 44.66778564 C335.82133285 53.25263113 342.72223089 62.77794547 348.81997681 73.14044189 C349.16657349 73.72519287 349.51317017 74.30994385 349.87026978 74.91241455 C362.01010239 95.68527045 368.98307225 119.22610484 368.9604187 143.32046509 C368.96487538 144.81849873 368.96487538 144.81849873 368.9694221 146.34679568 C368.97806505 149.67954963 368.97961363 153.01226748 368.98110962 156.34503174 C368.98574103 158.7406217 368.99076612 161.13621093 368.99615479 163.53179932 C369.00925242 170.03232557 369.01575642 176.53284494 369.02016544 183.03338194 C369.02293631 187.10070264 369.02717527 191.168021 369.03166962 195.23534012 C369.04385836 206.5196003 369.05415726 217.80385861 369.05754471 229.08812523 C369.05776427 229.80934851 369.05798384 230.53057179 369.05821006 231.27365033 C369.05842834 231.99650446 369.05864662 232.7193586 369.05887151 233.46411741 C369.05931496 234.92865396 369.05976152 236.3931905 369.06021118 237.85772705 C369.06043261 238.58417268 369.06065404 239.31061832 369.06088218 240.05907746 C369.06482347 251.80904907 369.08225876 263.55895841 369.1055707 275.308906 C369.12936883 287.40264135 369.14175045 299.49634558 369.14291263 311.5901047 C369.14382485 318.36797965 369.14946156 325.14577352 369.16773224 331.92362595 C369.18430684 338.30782883 369.1863231 344.69187874 369.17759323 351.07609558 C369.17682778 353.40675392 369.18109987 355.7374208 369.19105148 358.06805801 C369.36507853 401.40009422 354.81945758 439.59205226 324.29263306 470.69073486 C315.70778757 479.14179794 306.18247323 486.04269597 295.81997681 492.14044189 C295.23522583 492.48703857 294.65047485 492.83363525 294.04800415 493.19073486 C273.27514825 505.33056748 249.73431386 512.30353734 225.63995361 512.28088379 C224.64126452 512.28385491 223.64257542 512.28682603 222.61362302 512.28988719 C219.28086907 512.29853014 215.94815122 512.30007872 212.61538696 512.30157471 C210.219797 512.30620611 207.82420777 512.31123121 205.42861938 512.31661987 C198.92809313 512.3297175 192.42757376 512.3362215 185.92703676 512.34063053 C181.85971606 512.3434014 177.7923977 512.34764035 173.72507858 512.3521347 C162.4408184 512.36432345 151.15656009 512.37462235 139.87229347 512.3780098 C138.79045855 512.37833915 138.79045855 512.37833915 137.68676838 512.37867515 C136.96391424 512.37889343 136.2410601 512.3791117 135.49630129 512.3793366 C134.03176474 512.37978005 132.5672282 512.38022661 131.10269165 512.38067627 C130.37624602 512.3808977 129.64980038 512.38111913 128.90134124 512.38134727 C117.15136963 512.38528855 105.40146029 512.40272385 93.6515127 512.42603579 C81.55777735 512.44983392 69.46407312 512.46221554 57.370314 512.46337771 C50.59243905 512.46428994 43.81464518 512.46992664 37.03679276 512.48819733 C30.65258987 512.50477193 24.26853996 512.50678819 17.88432312 512.49805832 C15.55366478 512.49729287 13.2229979 512.50156496 10.89236069 512.51151657 C-32.43967552 512.68554362 -70.63163355 498.13992266 -101.73031616 467.61309814 C-110.18137924 459.02825266 -117.08227727 449.50293832 -123.18002319 439.14044189 C-123.52661987 438.55569092 -123.87321655 437.97093994 -124.23031616 437.36846924 C-139.15366328 411.83265263 -143.96888288 384.22270078 -143.82699585 354.93341064 C-143.83379502 352.5269607 -143.84271086 350.12051597 -143.85354614 347.71408081 C-143.87607264 341.2594098 -143.86761464 334.80514453 -143.85165071 328.35046768 C-143.84267249 324.30057544 -143.84447118 320.25073325 -143.84910202 316.20083618 C-143.84986819 315.52315191 -143.85063435 314.84546765 -143.85142373 314.14724749 C-143.85302277 312.7694531 -143.85464384 311.39165874 -143.85628669 310.0138644 C-143.87045789 297.17115175 -143.8542884 284.32861914 -143.82728486 271.48593605 C-143.80495393 260.5272569 -143.80883651 249.56884283 -143.83187866 238.61016846 C-143.85879081 225.80542442 -143.86908541 213.00083715 -143.85381734 200.19606876 C-143.85222502 198.82406174 -143.85065316 197.45205468 -143.84910202 196.08004761 C-143.84833064 195.40544076 -143.84755927 194.73083391 -143.84676451 194.03578442 C-143.84249339 189.33985864 -143.8498857 184.64406472 -143.86149979 179.94815063 C-143.87611257 173.59803788 -143.86562045 167.2484178 -143.8370285 160.89835739 C-143.83050645 158.58998806 -143.83215941 156.2815761 -143.84334183 153.97322464 C-144.02984188 111.50758545 -129.37532516 73.193066 -99.75082397 42.66778564 C-73.70742027 16.77431011 -36.88675524 -0.03468097 0 0 Z " fill="#FE6D00" transform="translate(143.18002319335938,-0.14044189453125)"/>
<path d="M0 0 C4.33448854 2.60069312 7.50247321 5.22287175 10.99609375 8.75317383 C11.8629631 9.61719566 11.8629631 9.61719566 12.74734497 10.49867249 C14.64897852 12.39661354 16.54333433 14.3016394 18.4375 16.20703125 C19.76322525 17.53394961 21.08932148 18.86049742 22.41577148 20.18669128 C25.19272644 22.96520865 27.96629555 25.74704721 30.73730469 28.53149414 C34.27951168 32.09066554 37.8282401 35.64324436 41.37931824 39.19356251 C44.11804144 41.93255845 46.85414421 44.67415946 49.58938599 47.4166317 C50.89646083 48.72687669 52.20413159 50.03652749 53.51242065 51.34556007 C55.34543892 53.18076095 57.17511876 55.01922687 59.00390625 56.85864258 C59.80672531 57.66078186 59.80672531 57.66078186 60.62576294 58.47912598 C63.95801002 61.83954367 66.99303972 65.34600894 70 69 C71.70963722 70.59881308 71.70963722 70.59881308 73.375 71.875 C75.8232849 73.88299032 77.77741312 75.90990333 79.72680664 78.39599609 C83.19116215 82.40801477 87.06584407 85.58815462 91.22045898 88.84228516 C154.10556933 138.20058705 154.10556933 138.20058705 158.21769714 171.53268433 C159.18894283 182.12805612 159.12498082 192.63477105 158.5625 203.25 C158.50914867 204.27802986 158.45579735 205.30605972 158.40082932 206.365242 C157.63471041 220.00949662 156.11929767 233.50353968 154 247 C153.87404827 247.81353439 153.74809654 248.62706879 153.61832809 249.46525574 C153.24139122 251.88145325 152.85562384 254.2960057 152.46459961 256.70996094 C152.29358278 257.77641531 152.29358278 257.77641531 152.11911106 258.86441422 C145.97258279 295.56345574 123.45873088 330.5286808 93.30029297 352.22265625 C89.30286916 354.9887868 85.18865377 357.535213 81 360 C80.41524902 360.34659668 79.83049805 360.69319336 79.22802734 361.05029297 C62.75655899 370.67635834 44.35319453 377.19725677 25.36561584 379.42674255 C21.89321684 379.85654543 18.47418834 380.45158777 15.03963375 381.12486744 C3.14833181 383.43215436 -8.79768723 384.81280341 -20.875 385.6875 C-21.9040382 385.76241543 -22.9330764 385.83733086 -23.99329758 385.91451645 C-51.61892534 387.67772835 -73.31522664 382.83403036 -94.27757215 364.48503774 C-104.57906476 355.28587669 -114.19240528 345.4498147 -123.5625 335.3125 C-124.05576373 334.77972805 -124.54902746 334.24695609 -125.05723858 333.69803953 C-136.29252985 321.5427214 -147.20663702 309.12895833 -157.71121025 296.33370495 C-162.42050431 290.60407824 -167.33228096 285.56122091 -172.875 280.625 C-178.95339921 275.12003468 -184.783884 269.35939668 -190.59844971 263.57879639 C-191.65676216 262.52731307 -192.71677946 261.47754287 -193.77850342 260.42950439 C-195.28858604 258.9373505 -196.79167622 257.43849148 -198.29296875 255.9375 C-199.1749292 255.05964844 -200.05688965 254.18179688 -200.96557617 253.27734375 C-203 251 -203 251 -204 248 C-167.37 248 -130.74 248 -93 248 C-93 236.45 -93 224.9 -93 213 C-97.29 212.34 -101.58 211.68 -106 211 C-110.29 210.01 -114.58 209.02 -119 208 C-119 188.53 -119 169.06 -119 149 C-90.95 149 -62.9 149 -34 149 C-34 133.82 -34 118.64 -34 103 C-62.05 103 -90.1 103 -119 103 C-119 84.19 -119 65.38 -119 46 C-94.91 46 -70.82 46 -46 46 C-44.51939465 54.88363208 -45 63.99382928 -45 73 C-30.15 73 -15.3 73 0 73 C0 48.91 0 24.82 0 0 Z " fill="#D15900" transform="translate(358,132)"/>
<path d="M0 0 C67.32 0 134.64 0 204 0 C204 24.09 204 48.18 204 73 C189.15 73 174.3 73 159 73 C158.67 64.09 158.34 55.18 158 46 C133.91 46 109.82 46 85 46 C85 64.81 85 83.62 85 103 C113.05 103 141.1 103 170 103 C170 118.18 170 133.36 170 149 C141.95 149 113.9 149 85 149 C85 168.47 85 187.94 85 208 C87.31 208.33 89.62 208.66 92 209 C93.61681027 209.30613515 95.23067083 209.62862618 96.83984375 209.97265625 C97.59386475 210.13258057 98.34788574 210.29250488 99.12475586 210.45727539 C100.05296143 210.65699951 100.98116699 210.85672363 101.9375 211.0625 C104.928125 211.701875 107.91875 212.34125 111 213 C111 224.55 111 236.1 111 248 C74.37 248 37.74 248 0 248 C0 236.45 0 224.9 0 213 C12 210 12 210 25 208 C25 152.56 25 97.12 25 40 C21.535 39.505 21.535 39.505 18 39 C16.45540636 38.69656741 14.91420794 38.37474778 13.37890625 38.02734375 C12.66549072 37.86741943 11.9520752 37.70749512 11.21704102 37.54272461 C9.90304321 37.24313843 9.90304321 37.24313843 8.5625 36.9375 C4.3240625 35.9784375 4.3240625 35.9784375 0 35 C0 23.45 0 11.9 0 0 Z " fill="#FEFEFD" transform="translate(154,132)"/>
<path d="M0 0 C5.7990098 0.62602947 11.33905179 1.67469436 17 3.0625 C19.64 3.701875 22.28 4.34125 25 5 C25 11.6 25 18.2 25 25 C17.11138867 18.23833314 17.11138867 18.23833314 13.37890625 14.51171875 C12.58935547 13.72345703 11.79980469 12.93519531 10.98632812 12.12304688 C9.7865332 10.91745117 9.7865332 10.91745117 8.5625 9.6875 C7.73556641 8.86443359 6.90863281 8.04136719 6.05664062 7.19335938 C5.27611328 6.41154297 4.49558594 5.62972656 3.69140625 4.82421875 C2.98185791 4.11354248 2.27230957 3.40286621 1.54125977 2.6706543 C0 1 0 1 0 0 Z " fill="#8A3D03" transform="translate(154,167)"/>
</svg>
